<svg version="1" xmlns="http://www.w3.org/2000/svg" width="682.667" height="682.667" viewBox="0 0 512.000000 512.000000"><path d="M368.6 130.6c-4.3.8-11.9 2.8-16.7 4.4-17.8 5.9-29 13.1-41.5 26.2C291.8 181 282 208.8 282 242c0 56.2 26 94.7 73 108.3 13.5 3.9 24.4 5 45.5 4.5 17.3-.5 20.1-.8 31.2-3.7 11.3-2.9 21.2-6.5 33.6-12.1l4.7-2.1V285h-3c-2.1 0-4.7 1.4-8.5 4.4-12.2 10-25.7 17.8-36.5 21.1-8.6 2.6-25.1 3.1-34.4 1.1-27.2-6.1-43.6-26.7-46.6-58.6-3.8-40 12-70.1 41.7-79.6 7.5-2.4 25.4-2.9 33.7-1 12.2 2.9 26.7 10.7 41.7 22.3 3.9 3 6.5 4.3 8.7 4.3h3.2v-52.7l-9.2-4.1c-11.7-5.1-19.7-7.7-31.8-10.3-12.7-2.8-48.4-3.6-60.4-1.3zM117.5 134.7c-2.2 5.8-78.8 213.1-79.2 214.5-.5 1.7 1.3 1.8 27.9 1.8h28.4l7.5-21.8 7.4-21.7h80.9l7.5 21.7 7.5 21.8h28.9c27.1 0 28.9-.1 28.4-1.8-.4-1.4-77-208.7-79.2-214.5-.7-1.6-3.2-1.7-33-1.7s-32.3.1-33 1.7zm45.9 93.8c7.1 20.7 12.7 37.8 12.4 38-.3.3-12.2.4-26.4.3l-26-.3 13-37.8C143.5 208 149.6 191 150 191c.3 0 6.4 16.9 13.4 37.5z"/></svg>